<svg id="Layer_1" data-name="Layer 1" xmlns="http://www.w3.org/2000/svg" xmlns:xlink="http://www.w3.org/1999/xlink" viewBox="0 0 768.62 99.15"><defs><style>.cls-1{fill:#f6a635;}.cls-2{fill:#e63b2e;}.cls-3{fill:url(#linear-gradient);}.cls-4{fill:url(#linear-gradient-2);}.cls-5{fill:#009ee3;}.cls-6{fill:#0067b1;}.cls-7{fill:#e11482;}.cls-8{fill:#74cbf3;}.cls-9{fill:#931e80;}.cls-10{fill:#433d90;}.cls-11{fill:none;}.cls-12{fill:#253882;}</style><linearGradient id="linear-gradient" x1="320.28" y1="358.48" x2="383.41" y2="358.48" gradientUnits="userSpaceOnUse"><stop offset="0" stop-color="#525252"/><stop offset="0.07" stop-color="#787878"/><stop offset="0.15" stop-color="#9c9c9c"/><stop offset="0.24" stop-color="#bbb"/><stop offset="0.33" stop-color="#d4d4d4"/><stop offset="0.44" stop-color="#e7e7e7"/><stop offset="0.56" stop-color="#f5f5f5"/><stop offset="0.71" stop-color="#fdfdfd"/><stop offset="1" stop-color="#fff"/></linearGradient><linearGradient id="linear-gradient-2" x1="320.28" y1="395.61" x2="320.28" y2="336.19" xlink:href="#linear-gradient"/></defs><title>OpenActive Landscape Logo</title><path class="cls-1" d="M410,396.25h46.7c13.24,0-2.56,7.06-2.56-4.88V395l5.42,5.26,3.84,2c2.81-.58-.63,4.31,1.93,7.61,1.62,2.1,7.78,7.46,8.1,8H440.61C427.37,417.86,410,408.18,410,396.25Z" transform="translate(-298 -335.68)"/><path class="cls-2" d="M464.17,400.27l1.46,2.43c2.82-.58,1.75,3.93,4.31,7.24a86.73,86.73,0,0,1,4.67,7.9l-.64.08c-4.58-.26-42.13,1.35-50.07-21.65h37.41" transform="translate(-298 -335.68)"/><path class="cls-3" d="M376,341.87a22.22,22.22,0,0,0-14.86-5.68H320.28v22.29h40.85a22.27,22.27,0,0,1,22.28,22.28V358.48A22.25,22.25,0,0,0,376,341.87Z" transform="translate(-298 -335.68)"/><path class="cls-4" d="M320.28,395.61V358.48a22.29,22.29,0,0,1,22.28-22.29H320.28A22.3,22.3,0,0,0,298,358.48v14.85A22.28,22.28,0,0,0,320.28,395.61Z" transform="translate(-298 -335.68)"/><path class="cls-5" d="M376,341.87a22.22,22.22,0,0,0-14.86-5.68H320.28v22.29h40.85c.1.1,22.28,24.15,22.28,36.46V358.48A22.25,22.25,0,0,0,376,341.87Z" transform="translate(-298 -335.68)"/><path class="cls-6" d="M320.28,395.61V358.37c-.08.08,23.85-22.19,23.85-22.16s0,0,0,0H320.28A22.3,22.3,0,0,0,298,358.48v14.85C298,385.64,303,395.61,320.28,395.61Z" transform="translate(-298 -335.68)"/><path class="cls-7" d="M436.69,335.7l37.93,82.13h0c0-.11-22.67.11-33.33-21.73L423.17,357a15,15,0,0,1,13.52-21.29Z" transform="translate(-298 -335.68)"/><path class="cls-8" d="M361.13,358.48v37c0,14.43-21.56,22.37-33.87,22.37h33.87a22.26,22.26,0,0,0,22.28-22.28V380.76S361.13,358.45,361.13,358.48Z" transform="translate(-298 -335.68)"/><path class="cls-9" d="M436.87,335.71s-27.4-1.94-39.32,27.25c-15.29,37.45-25.3,54.91-63,54.91h35.32c19.15,0,30.59-7,41.38-28.17C421.43,369.82,422.64,348.22,436.87,335.71Z" transform="translate(-298 -335.68)"/><path class="cls-8" d="M353.9,344.51" transform="translate(-298 -335.68)"/><path class="cls-2" d="M445.21,387.41" transform="translate(-298 -335.68)"/><path class="cls-2" d="M381.07,391.73" transform="translate(-298 -335.68)"/><path class="cls-8" d="M370.71,361.62" transform="translate(-298 -335.68)"/><path class="cls-10" d="M298,391.2c0,20.13,16.63,26.69,22.36,26.69h17.29c12.5,0,23.45-12.62,23.45-22.28H320.31c.08.08-22.29-25.72-22.29-25.72" transform="translate(-298 -335.68)"/><path class="cls-11" d="M604,371.32c-7.82,0-14.31,6.5-14.31,16.29v.22c0,9.8,6.49,16.29,14.31,16.29s14.42-6.38,14.42-16.29v-.22C618.4,377.82,611.79,371.32,604,371.32Z" transform="translate(-298 -335.68)"/><path class="cls-11" d="M667.71,370.55c-6.94,0-11.45,5-12.77,12.55h25.2C679.15,375.62,674.75,370.55,667.71,370.55Z" transform="translate(-298 -335.68)"/><polygon class="cls-11" points="490.55 49.29 511.02 49.29 500.79 24.3 490.55 49.29"/><path class="cls-11" d="M527.16,354.48c-13.65,0-23.12,10.79-23.12,24v.22c0,13.2,9.69,24.21,23.34,24.21s23.11-10.78,23.11-24v-.22C550.49,365.49,540.81,354.48,527.16,354.48Z" transform="translate(-298 -335.68)"/><path class="cls-11" d="M1037.89,370.55c-6.93,0-11.45,5-12.77,12.55h25.21C1049.34,375.62,1044.94,370.55,1037.89,370.55Z" transform="translate(-298 -335.68)"/><polygon class="cls-12" points="697.56 22.54 684.24 62.06 671.03 22.54 653.31 22.54 676.54 81.98 691.73 81.98 714.95 22.54 697.56 22.54"/><rect class="cls-12" x="634.65" y="22.54" width="16.73" height="59"/><path class="cls-12" d="M527.38,338.85c-23.78,0-41.06,17.94-41.06,39.85v.22c0,21.9,17.06,39.62,40.84,39.62s41.05-17.94,41.05-39.84v-.22C568.21,356.57,551.15,338.85,527.38,338.85Zm23.11,40.07c0,13.21-9.46,24-23.11,24S504,391.9,504,378.7v-.22c0-13.21,9.47-24,23.12-24s23.33,11,23.33,24.22Z" transform="translate(-298 -335.68)"/><path class="cls-12" d="M608.27,357.12c-8.69,0-14.31,4.08-18.38,9.58v-8.48H573.16v76.61h16.73V409.52c4,4.73,9.47,8.8,18.38,8.8,14,0,26.86-10.79,26.86-30.49v-.22C635.13,367.91,622,357.12,608.27,357.12Zm10.13,30.71c0,9.91-6.61,16.29-14.42,16.29s-14.31-6.49-14.31-16.29v-.22c0-9.79,6.49-16.29,14.31-16.29s14.42,6.5,14.42,16.29Z" transform="translate(-298 -335.68)"/><path class="cls-12" d="M667.71,357.12c-17.18,0-29.17,13.87-29.17,30.71v.22c0,18.05,13.1,30.49,30.82,30.49,10.67,0,18.6-4.18,24.1-11l-9.58-8.47c-4.62,4.29-8.69,6.05-14.3,6.05-7.49,0-12.77-4-14.42-11.55h41.05c.11-1.55.22-3.09.22-4.41C696.43,372.42,687.41,357.12,667.71,357.12Zm-12.77,26c1.32-7.59,5.83-12.55,12.77-12.55s11.44,5.07,12.43,12.55Z" transform="translate(-298 -335.68)"/><path class="cls-12" d="M735.28,357.12c-8.47,0-13.43,4.52-17.28,9.47v-8.37H701.27v59H718V384.31c0-7.92,4.08-12,10.46-12s10.13,4.08,10.13,12v32.91h16.72V379C755.31,365.49,747.94,357.12,735.28,357.12Z" transform="translate(-298 -335.68)"/><path class="cls-12" d="M791.19,339.62l-33,77.6h17.28l7-17.28h32.58l7,17.28h17.72l-33-77.6ZM788.55,385l10.24-25L809,385Z" transform="translate(-298 -335.68)"/><path class="cls-12" d="M911,343.15H894.24v16.1l7,7-7,7v27.25c0,13.65,6.93,17.72,17.17,17.72a24.71,24.71,0,0,0,13.21-3.41V401.37a17.07,17.07,0,0,1-8.26,2.09c-3.74,0-5.39-1.87-5.39-5.72V372.53h13.87V358.22H911Z" transform="translate(-298 -335.68)"/><path class="cls-12" d="M1066.62,389.15c0-16.73-9-32-28.73-32-17.17,0-29.17,13.87-29.17,30.71v.22c0,18.05,13.1,30.49,30.82,30.49,10.68,0,18.6-4.18,24.11-11l-9.58-8.47c-4.62,4.29-8.69,6.05-14.31,6.05-7.48,0-12.77-4-14.42-11.55h41.06C1066.51,392,1066.62,390.47,1066.62,389.15Zm-41.5-6c1.32-7.59,5.84-12.55,12.77-12.55s11.45,5.07,12.44,12.55Z" transform="translate(-298 -335.68)"/><path class="cls-12" d="M880.23,397.85c-4.07,3.85-7.92,6.27-13.53,6.27-9.14,0-15-7.26-15-16.29v-.22c0-8.69,5.94-16.07,14.31-16.07,5.94,0,9.68,2.53,13.42,6.5l2.47-2.65L889.7,367a28.35,28.35,0,0,0-10.21-7.49,33.83,33.83,0,0,0-13.34-2.42c-18.06,0-30.93,13.87-30.93,30.71v.22c0,16.84,13,30.49,30.71,30.49,11.77,0,18.38-4.51,24.1-10.79Z" transform="translate(-298 -335.68)"/></svg>